<?xml version="1.0" encoding="utf-8"?>
<!-- Generator: Adobe Illustrator 19.2.0, SVG Export Plug-In . SVG Version: 6.00 Build 0)  -->
<svg version="1.1" xmlns="http://www.w3.org/2000/svg" xmlns:xlink="http://www.w3.org/1999/xlink" x="0px" y="0px" width="52.4px"
	 height="52.5px" viewBox="0 0 52.4 52.5" style="enable-background:new 0 0 52.4 52.5;" xml:space="preserve">
<style type="text/css">
	.st0{fill:#666666;}
	.st1{fill-rule:evenodd;clip-rule:evenodd;fill:#666666;}
	.st2{fill:#F0F0F0;}
</style>
<g id="Layer_1">
</g>
<g id="logo_x2F_social_media">
	<path class="st0" d="M-40.1,58.6c-2.4,1-4.9,1.8-7.6,2.1c2.7-1.6,4.8-4.2,5.8-7.3c-2.5,1.5-5.4,2.6-8.4,3.2
		c-2.4-2.6-5.8-4.2-9.6-4.2c-7.3,0-13.2,5.9-13.2,13.2c0,1,0.1,2,0.3,3c-10.9-0.6-20.6-5.8-27.1-13.8c-1.1,2-1.8,4.2-1.8,6.6
		c0,4.6,2.3,8.6,5.9,11c-2.2-0.1-4.2-0.7-6-1.6V71c0,6.4,4.5,11.7,10.6,12.9c-1.1,0.3-2.3,0.5-3.5,0.5c-0.8,0-1.7-0.1-2.5-0.2
		c1.7,5.2,6.5,9,12.3,9.1c-4.5,3.5-10.2,5.6-16.4,5.6c-1.1,0-2.1-0.1-3.1-0.2c5.8,3.7,12.8,5.9,20.2,5.9c24.2,0,37.5-20.1,37.5-37.5
		c0-0.6,0-1.1,0-1.7C-44.1,63.6-41.9,61.3-40.1,58.6"/>
	<g>
		<path class="st0" d="M10.8,0.1c0.2,0,0.4,0,0.6,0c0.3,0.1,0.4,0.3,0.4,0.5c0,0.1,0,0.2,0,0.2c0,1.6,0,3.2,0,4.9c0,1.8,0,3.6,0,5.4
			c0,0.5,0,1,0,1.5c0,0.3,0.1,0.4,0.4,0.4c0.4,0,0.8,0,1.2-0.1c0.2,0,0.4-0.2,0.4-0.4c0-0.1,0-0.3,0-0.5c0-0.6,0-1.1,0-1.7
			c0-3.2,0-6.5,0-9.7c0-0.3,0-0.5,0.4-0.6c7.9,0,15.7,0,23.6,0c0.1,0,0.1,0,0.2,0c1.4,0,2.8,0,4.2,0c0.7,0,1.4,0.1,2.1,0.2
			c2.2,0.5,4,1.7,5.4,3.4c1.2,1.3,1.9,2.9,2.3,4.7c0.2,0.9,0.2,1.9,0.2,2.8c0,1.9,0,3.7,0,5.6c0,0.3-0.1,0.4-0.4,0.4
			c-0.1,0-0.1,0-0.2,0c-5.2,0-10.3,0-15.5,0c-0.3,0-0.6-0.1-0.9-0.3c-0.7-0.6-1.4-1.2-2.2-1.7c-2.9-1.7-6-2.3-9.3-1.7
			c-2.6,0.5-4.8,1.6-6.7,3.4c-0.3,0.2-0.5,0.3-0.9,0.3c-5.2,0-10.4,0-15.6,0c-0.3,0-0.4-0.1-0.4-0.4c0-0.5,0-0.9,0-1.4
			c0-2-0.1-3.9,0.1-5.9c0.1-1.2,0.4-2.3,0.9-3.4C2,4.4,3.1,3.1,4.6,2c0,0,0,0,0.1,0c0,0,0,0,0,0.1c0,3.1,0,6.2,0,9.3
			c0,0.4,0,0.9,0,1.3c0,0.3,0.1,0.4,0.4,0.4c0.4,0,0.8,0,1.2-0.1c0.3,0,0.4-0.2,0.4-0.4c0-0.2,0-0.3,0-0.5c0-3.5,0-7,0-10.5
			c0-0.1,0-0.2,0-0.2c0-0.4,0-0.4,0.3-0.5c0.3-0.1,0.6-0.3,1-0.3c0.3,0,0.3,0,0.3,0.3c0,0.1,0,0.2,0,0.3c0,3.2,0,6.3,0,9.5
			c0,0.7,0,1.4,0,2.1c0,0.3,0.1,0.4,0.4,0.4c0.4,0,0.7,0,1.1,0c0.3,0,0.5-0.2,0.5-0.5c0-0.2,0-0.4,0-0.6c0-1.9,0-3.7,0-5.6
			c0-1.8,0-3.7,0-5.5C10.3,0.3,10.3,0.3,10.8,0.1z M38.7,8.9L38.7,8.9c0,1,0,1.9,0,2.9c0,0.9,0.7,1.6,1.6,1.6c1.8,0,3.7,0,5.5,0
			c1,0,1.7-0.7,1.7-1.6c0-1.9,0-3.7,0-5.6c0-1-0.7-1.6-1.6-1.7c-1.8,0-3.7,0-5.5,0c-1,0-1.6,0.6-1.6,1.6C38.6,7,38.7,8,38.7,8.9z"/>
		<path class="st1" d="M15.4,18.8c-2,3-2.9,6.2-2.3,9.8c0.5,3.1,1.9,5.7,4.3,7.8c4.8,4.2,11.7,4.4,16.7,0.6c2.9-2.2,4.6-5,5.1-8.6
			c0.6-3.5-0.3-6.8-2.3-9.7c0.1,0,0.1,0,0.2,0c4.3,0,8.6,0,12.9,0c0.5,0,1,0,1.4,0c0.1,0,0.2,0,0.3,0c0.2,0,0.3,0.1,0.4,0.4
			c0,0.3,0,0.6,0,0.9c0,2.2,0,4.3,0,6.5c0,5.3,0,10.5,0,15.8c0,2.6-0.9,4.8-2.7,6.7c-1.5,1.7-3.4,2.7-5.7,3.1
			c-0.6,0.1-1.1,0.2-1.7,0.2c-10.6,0-21.1,0-31.7,0c-4.8,0-8.7-3.2-9.9-7.7c-0.2-0.9-0.3-1.8-0.3-2.8c0-4.9,0-9.8,0-14.7
			c0-2.5,0-5,0-7.5c0-0.1,0-0.2,0-0.3c0-0.3,0.2-0.5,0.5-0.5c0.3,0,0.7,0,1,0c4.5,0,8.9,0,13.4,0C15.2,18.8,15.3,18.8,15.4,18.8z"/>
		<path class="st1" d="M26.2,16.2c5.6,0,10.2,4.6,10.2,10.3c0,5.7-4.6,10.2-10.3,10.2c-5.7,0-10.2-4.6-10.2-10.2
			C16,20.8,20.6,16.2,26.2,16.2z M33.8,26.6c0-4.2-3.2-7.7-7.6-7.7c-4.2,0.1-7.6,3.5-7.4,7.7c0.1,4.2,3.5,7.5,7.7,7.4
			C30.5,33.9,33.8,30.5,33.8,26.6z"/>
	</g>
	<g>
		<path class="st0" d="M-31.5-38.9c-9.6,0-19.2,0-28.9,0c0-16.8,0-33.5,0-50.3c1-1.6,2.5-1.8,4.2-1.8c14.8,0.1,29.6,0,44.4,0
			c2.5,0,3.4,0.9,3.4,3.4c0,14.9,0,29.7,0,44.6c0,1.7-0.3,3.1-1.8,4.1c-4.7,0-9.5,0-14.2,0c0-6.7,0-13.4-0.1-20.1
			c0-0.9,0.4-1.2,1.2-1.2c1.8,0,3.6,0,5.6,0c0-2.1,0-4.1-0.1-6c0-0.3-0.7-0.7-1.1-0.7c-1.5-0.1-3-0.1-4.5,0c-0.8,0-1.1-0.3-1.1-1.1
			c0-1.4,0-2.8,0-4.1c0-2.2,0.9-3.4,3-3.9c1-0.2,2-0.3,3-0.2c1.1,0.1,1.4-0.4,1.3-1.4c-0.1-1.2,0-2.4,0-3.6c0-0.8-0.3-1.1-1.1-1.1
			c-1.7,0-3.5,0-5.2,0c-5.1,0-8.3,3.2-8.3,8.3c0,2.3,0,4.6,0,7c-0.6,0-1.1,0.1-1.6,0.1c-1.4,0-2.8,0-4.1,0c-0.3,0-0.9,0.4-0.9,0.6
			c-0.1,2,0,4,0,6.1c1.8,0,3.4,0.1,5,0c1.3-0.1,1.7,0.4,1.7,1.7C-31.6-51.9-31.5-45.4-31.5-38.9z"/>
		<path class="st2" d="M-31.5-38.9c0-6.5-0.1-13,0-19.5c0-1.4-0.4-1.8-1.7-1.7c-1.6,0.1-3.2,0-5,0c0-2.1,0-4.1,0-6.1
			c0-0.2,0.6-0.6,0.9-0.6c1.4-0.1,2.8,0,4.1,0c0.5,0,1-0.1,1.6-0.1c0-2.4,0-4.7,0-7c0-5.1,3.2-8.3,8.3-8.3c1.7,0,3.5,0,5.2,0
			c0.8,0,1.1,0.3,1.1,1.1c0,1.2-0.1,2.4,0,3.6c0.1,1-0.3,1.4-1.3,1.4c-1,0-2.1,0-3,0.2c-2.1,0.5-3,1.8-3,3.9c0,1.4,0,2.8,0,4.1
			c0,0.8,0.3,1.1,1.1,1.1c1.5,0,3-0.1,4.5,0c0.4,0,1.1,0.5,1.1,0.7c0.1,1.9,0.1,3.8,0.1,6c-1.9,0-3.8,0-5.6,0
			c-0.8,0-1.2,0.3-1.2,1.2c0,6.7,0,13.4,0.1,20.1C-26.7-38.9-29.1-38.9-31.5-38.9z"/>
		<path class="st0" d="M-10.1-38.9c1.5-1,1.8-2.4,1.8-4.1c-0.1-14.9,0-29.7,0-44.6c0-2.5-0.9-3.4-3.4-3.4c-14.8,0-29.6,0-44.4,0
			c-1.8,0-3.2,0.2-4.2,1.8c0-0.7,0-1.4,0-2.1c17.5,0,34.9,0,52.4,0c0,17.5,0,35,0,52.5C-8.7-38.9-9.4-38.9-10.1-38.9z"/>
	</g>
	<g>
	</g>
	<g>
	</g>
	<g>
	</g>
	<g>
	</g>
	<g>
	</g>
	<g>
	</g>
	<g>
	</g>
	<g>
	</g>
	<g>
	</g>
	<g>
	</g>
	<g>
	</g>
	<g>
	</g>
	<g>
	</g>
	<g>
	</g>
	<g>
	</g>
</g>
</svg>
