<?xml version="1.0" encoding="utf-8"?>
<!-- Generator: Adobe Illustrator 19.2.0, SVG Export Plug-In . SVG Version: 6.00 Build 0)  -->
<svg version="1.1" xmlns="http://www.w3.org/2000/svg" xmlns:xlink="http://www.w3.org/1999/xlink" x="0px" y="0px" width="64.2px"
	 height="52.5px" viewBox="0 0 64.2 52.5" style="enable-background:new 0 0 64.2 52.5;" xml:space="preserve">
<style type="text/css">
	.st0{fill:#666666;}
	.st1{fill:#F0F0F0;}
</style>
<g id="Layer_1">
</g>
<g id="logo_x2F_social_media">
	<path class="st0" d="M64.2,6.3c-2.4,1-4.9,1.8-7.6,2.1c2.7-1.6,4.8-4.2,5.8-7.3c-2.5,1.5-5.4,2.6-8.4,3.2c-2.4-2.6-5.8-4.2-9.6-4.2
		c-7.3,0-13.2,5.9-13.2,13.2c0,1,0.1,2,0.3,3C20.7,15.8,11,10.5,4.5,2.5c-1.1,2-1.8,4.2-1.8,6.6c0,4.6,2.3,8.6,5.9,11
		c-2.2-0.1-4.2-0.7-6-1.6v0.2c0,6.4,4.5,11.7,10.6,12.9C12,31.9,10.9,32,9.7,32C8.8,32,8,32,7.2,31.8c1.7,5.2,6.5,9,12.3,9.1
		C15,44.5,9.3,46.6,3.1,46.6c-1.1,0-2.1-0.1-3.1-0.2c5.8,3.7,12.8,5.9,20.2,5.9c24.2,0,37.5-20.1,37.5-37.5c0-0.6,0-1.1,0-1.7
		C60.2,11.3,62.4,9,64.2,6.3"/>
	<g>
		<path class="st0" d="M-25.6-38.9c-9.6,0-19.2,0-28.9,0c0-16.8,0-33.5,0-50.3c1-1.6,2.5-1.8,4.2-1.8c14.8,0.1,29.6,0,44.4,0
			c2.5,0,3.4,0.9,3.4,3.4c0,14.9,0,29.7,0,44.6c0,1.7-0.3,3.1-1.8,4.1c-4.7,0-9.5,0-14.2,0c0-6.7,0-13.4-0.1-20.1
			c0-0.9,0.4-1.2,1.2-1.2c1.8,0,3.6,0,5.6,0c0-2.1,0-4.1-0.1-6c0-0.3-0.7-0.7-1.1-0.7c-1.5-0.1-3-0.1-4.5,0c-0.8,0-1.1-0.3-1.1-1.1
			c0-1.4,0-2.8,0-4.1c0-2.2,0.9-3.4,3-3.9c1-0.2,2-0.3,3-0.2c1.1,0.1,1.4-0.4,1.3-1.4c-0.1-1.2,0-2.4,0-3.6c0-0.8-0.3-1.1-1.1-1.1
			c-1.7,0-3.5,0-5.2,0c-5.1,0-8.3,3.2-8.3,8.3c0,2.3,0,4.6,0,7c-0.6,0-1.1,0.1-1.6,0.1c-1.4,0-2.8,0-4.1,0c-0.3,0-0.9,0.4-0.9,0.6
			c-0.1,2,0,4,0,6.1c1.8,0,3.4,0.1,5,0c1.3-0.1,1.7,0.4,1.7,1.7C-25.7-51.9-25.6-45.4-25.6-38.9z"/>
		<path class="st1" d="M-25.6-38.9c0-6.5-0.1-13,0-19.5c0-1.4-0.4-1.8-1.7-1.7c-1.6,0.1-3.2,0-5,0c0-2.1,0-4.1,0-6.1
			c0-0.2,0.6-0.6,0.9-0.6c1.4-0.1,2.8,0,4.1,0c0.5,0,1-0.1,1.6-0.1c0-2.4,0-4.7,0-7c0-5.1,3.2-8.3,8.3-8.3c1.7,0,3.5,0,5.2,0
			c0.8,0,1.1,0.3,1.1,1.1c0,1.2-0.1,2.4,0,3.6c0.1,1-0.3,1.4-1.3,1.4c-1,0-2.1,0-3,0.2c-2.1,0.5-3,1.8-3,3.9c0,1.4,0,2.8,0,4.1
			c0,0.8,0.3,1.1,1.1,1.1c1.5,0,3-0.1,4.5,0c0.4,0,1.1,0.5,1.1,0.7c0.1,1.9,0.1,3.8,0.1,6c-1.9,0-3.8,0-5.6,0
			c-0.8,0-1.2,0.3-1.2,1.2c0,6.7,0,13.4,0.1,20.1C-20.8-38.9-23.2-38.9-25.6-38.9z"/>
		<path class="st0" d="M-4.2-38.9c1.5-1,1.8-2.4,1.8-4.1c-0.1-14.9,0-29.7,0-44.6c0-2.5-0.9-3.4-3.4-3.4c-14.8,0-29.6,0-44.4,0
			c-1.8,0-3.2,0.2-4.2,1.8c0-0.7,0-1.4,0-2.1c17.5,0,34.9,0,52.4,0c0,17.5,0,35,0,52.5C-2.8-38.9-3.5-38.9-4.2-38.9z"/>
	</g>
	<g>
	</g>
	<g>
	</g>
	<g>
	</g>
	<g>
	</g>
	<g>
	</g>
	<g>
	</g>
	<g>
	</g>
	<g>
	</g>
	<g>
	</g>
	<g>
	</g>
	<g>
	</g>
	<g>
	</g>
	<g>
	</g>
	<g>
	</g>
	<g>
	</g>
</g>
</svg>
